<?xml version="1.0" encoding="utf-8"?>
<!-- Generator: Adobe Illustrator 24.0.3, SVG Export Plug-In . SVG Version: 6.00 Build 0)  -->
<svg version="1.1" xmlns="http://www.w3.org/2000/svg" xmlns:xlink="http://www.w3.org/1999/xlink" x="0px" y="0px"
	 viewBox="0 0 1024 1024" style="enable-background:new 0 0 1024 1024;" xml:space="preserve">
<style type="text/css">
	.st0{display:none;}
	.st1{display:inline;}
	.st2{clip-path:url(#SVGID_3_);}
	.st3{clip-path:url(#SVGID_4_);fill:#FFFFFF;}
	.st4{clip-path:url(#SVGID_7_);}
	.st5{clip-path:url(#SVGID_8_);fill:#FFFFFF;}
	.st6{clip-path:url(#SVGID_11_);}
	.st7{clip-path:url(#SVGID_12_);fill:#FFFFFF;}
	.st8{clip-path:url(#SVGID_15_);}
	.st9{clip-path:url(#SVGID_16_);fill:#FFFFFF;}
	.st10{clip-path:url(#SVGID_19_);}
	.st11{clip-path:url(#SVGID_20_);fill:#FFFFFF;}
	.st12{clip-path:url(#SVGID_23_);}
	.st13{clip-path:url(#SVGID_24_);fill:#FFFFFF;}
	.st14{clip-path:url(#SVGID_27_);}
	.st15{clip-path:url(#SVGID_28_);fill:#FFFFFF;}
	.st16{clip-path:url(#SVGID_31_);}
	.st17{clip-path:url(#SVGID_32_);fill:#FFFFFF;}
	.st18{clip-path:url(#SVGID_35_);}
	.st19{clip-path:url(#SVGID_36_);fill:#FFFFFF;}
	.st20{clip-path:url(#SVGID_39_);}
	.st21{clip-path:url(#SVGID_40_);fill:#FFFFFF;}
	.st22{clip-path:url(#SVGID_43_);}
	.st23{clip-path:url(#SVGID_44_);fill:#FFFFFF;}
	.st24{clip-path:url(#SVGID_47_);}
	.st25{clip-path:url(#SVGID_48_);fill:#FFFFFF;}
	.st26{clip-path:url(#SVGID_51_);}
	.st27{clip-path:url(#SVGID_52_);fill:#FFFFFF;}
	.st28{clip-path:url(#SVGID_55_);}
	.st29{clip-path:url(#SVGID_56_);fill:#FFFFFF;}
	.st30{clip-path:url(#SVGID_59_);}
	.st31{clip-path:url(#SVGID_60_);fill:#FFFFFF;}
	.st32{clip-path:url(#SVGID_63_);}
	.st33{clip-path:url(#SVGID_64_);fill:#FFFFFF;}
	.st34{clip-path:url(#SVGID_67_);}
	.st35{clip-path:url(#SVGID_68_);fill:#FFFFFF;}
	.st36{clip-path:url(#SVGID_71_);}
	.st37{clip-path:url(#SVGID_72_);fill:#FFFFFF;}
	.st38{clip-path:url(#SVGID_75_);}
	.st39{clip-path:url(#SVGID_76_);fill:#FFFFFF;}
	.st40{clip-path:url(#SVGID_79_);}
	.st41{clip-path:url(#SVGID_80_);fill:#FFFFFF;}
	.st42{clip-path:url(#SVGID_83_);}
	.st43{clip-path:url(#SVGID_84_);fill:#FFFFFF;}
	.st44{clip-path:url(#SVGID_87_);}
	.st45{clip-path:url(#SVGID_88_);fill:#FFFFFF;}
</style>
<g id="bg" class="st0">
	<rect x="0.7" y="1.4" class="st1" width="1022.6" height="1022.6"/>
</g>
<g id="logo">
	<g>
		<g>
			<defs>
				<rect id="SVGID_1_" width="1024" height="1024"/>
			</defs>
			<defs>
				<path id="SVGID_2_" d="M600.2,20.3c38.1,6.9,75.5,18.3,111,33.9c8.8,3.6,17.1,8.3,25.9,12c65.6,33.5,123.9,81.3,169.1,139.6
					c14.3,18.6,27.5,38.1,39.3,58.4c18.6,33.4,34.2,68.5,45.1,105.1c3,10.3,6.2,20.7,7.9,31.3c17,73.7,16.9,151.2-0.3,224.9
					c-5.7,28.1-15.4,55.2-26.3,81.7c-10.6,24.2-22.4,47.9-36.5,70.2c-28,44.7-63.1,84.8-103.4,118.7c-11.3,8.7-22.2,18-34,26
					c-21.6,15.4-44.8,28.5-68.5,40.2c-25,12-50.9,22.6-77.7,29.8c-91,26.8-189.8,26.6-280.7-0.5c-20.5-5.3-40.2-13.2-59.6-21.5
					c-39.7-17.8-77.5-40.1-111.2-67.6c-27.5-21.5-52-46.6-74.4-73.3c-15.9-20-30.9-40.7-43.8-62.8C61.9,731.8,45.5,695,33.9,656.7
					c-2.7-9.2-5.6-18.3-7.2-27.8C9.9,559.1,8.5,485.6,22.5,415.1c1.7-9.1,4.1-18.1,5.8-27.3c9.1-35,21.9-69,38.4-101.2
					c2.8-5.6,5.9-11.1,8.6-16.8c36.7-65.4,87.8-122.9,149.3-166c19.4-13.8,39.8-26.1,60.9-37.1c6.9-3,13.6-6.3,20.4-9.6
					c36.4-16.6,74.8-28.8,114.1-36.2c9.2-2.1,18.7-2.6,28.1-4.1c15.9-2.2,32-3.1,48.1-4C531,11.9,565.8,14.9,600.2,20.3L600.2,20.3z
					 M430.6,182.3c-1.7,8-1.4,17.3-7.2,23.7c-8.9,6.6-19.3,11.4-27.5,19.1c-10.5,7.6-14.9,20.2-21.5,30.8c-2.7,7.1-6.2,13.9-9,21
					c-0.8,3,0.2,6.2-0.6,9.3c-1.7,4.9,0.2,10.3-1.4,15.2c-0.9,3.3,0.1,6.9-0.9,10.2c-2.3,13.2-4.7,26.3-6.9,39.5
					c0.2,4.8,0.1,9.8-1.2,14.5c-0.4,6.6-1.6,13.2-2.3,19.8c-1.9,13-1.7,26.7-6.8,39.1c-10.3,3.8-21,6-31.3,9.7
					c-1.6,0.6-3.2,1.1-4.5,2.2c-3.7,5.8-4.9,12.8-6.3,19.4c-3.4,0.7-6.7,1.9-10.3,1.9c-1.7,5.1-3.8,10.1-4.9,15.4
					c9.7-4.9,18.3-11.6,27.7-17c15.2-9.3,30.4-18.6,45.6-27.7c13.7-9.5,27.4-19.1,40.9-29c6.2-3.7,11.6-8.7,18-12
					c17.9-11.7,35.2-24.3,53.7-35c6.1-5.4,13.7-8.6,21.3-11c14-5.3,28.1-10.2,42.4-14.7c1.7,6.7,3.6,13.4,6.2,19.9
					c8.6,0.9,16.9,3.9,25.4,5.5c8.7,1.7,17.5,3.4,26,6c4.9,4,8.9,9.2,12,14.7c4,5.8,6.1,12.7,10.2,18.5c3.1,7.2,6.2,14.4,9.4,21.6
					c8.3,5.9,18,9.3,26.7,14.4c5.9,4,11.6,8.4,16.2,13.8c6.1,8,12.1,16.1,19.5,23.1c3.3,0.1,6.7,0.1,10-0.1
					c-8.3-11.7-17.3-23.1-24.1-35.9c-0.9-3.4-2.4-6.6-3.6-9.9c4.9,4.3,9,9.4,13.9,13.7c5.7,3.8,10.2,9.1,15.1,13.9
					c3.7,4.1,8.6,6.9,12.2,11.1c3.7,2.5,6.7,5.9,10.3,8.5c2.3,1.8,3.2,4.9,5.6,6.6c4.6,3.2,8.9,6.9,13.7,9.8c3.5,2,5.6,5.6,9.1,7.5
					c4.5,4.5,7.6,10.4,8.6,16.7c1,6.7,4.9,12.4,7.2,18.7c2.5,5.1,5.3,10.1,7.6,15.3c-2.9-1.4-6.1-2.5-8-5.1c-5.3-5.3-9.2-11.6-13-18
					c-5.6-3.7-7.9-10.3-12.1-15.2c5.5,2.4,10.2,6.3,15.9,8.4c-3.2-6-5.4-12.5-8.6-18.5c-5.1-1.5-10-3.5-15.1-4.6
					c-9.7-2.2-19.2-5.3-29-6.9c-6.2-2-12.5-4.1-18.4-6.9c-2.3-2.9-1.7-6.9-3.1-10.2c-3.7,0-7.4,0-11.1,0c-5.6-6.7-9.2-15-15.4-21.2
					c-1.8-2.5-3.6-5.3-6.6-6.7c-8-6.4-17.5-11.7-27.9-12.4c-6.2-1.2-12.9-1.4-19.1-1c3.5,6.6,7.7,12.9,12.7,18.6
					c2.5,4.3,6.6,6.9,10.8,9.2c12.6,6.5,25.6,12.5,37.3,20.5c1.9,7.7,2.6,15.6,3.5,23.5c-4.8-3.5-7-9.4-11.4-13.3
					c-5-7-10.8-13.5-15.6-20.7c-2.2,0-4.3,0.5-6.4,1c-3.4,0.3-6.8-0.2-10.1,0.9c-6,0.5-12.1,1.2-17.9,3c2.8,4.9,8.1,7.5,12,11.4
					c5.7,4.4,11.5,8.6,17.8,12.2c5,2.8,9.8,6.7,15.7,7.5c9.4,7.3,19,14.5,27.3,23.1c3.8-3.4,3.5-9.2,4.8-13.8
					c7.6,2.8,14.3,8.1,21.8,11.3c-0.9-5.6-1.8-11.2-2.6-16.8c4.9,3.8,10.5,6.8,15.4,10.6c7,8.4,12.8,17.8,18.1,27.4
					c0.4,1.4,1.7,2,3,2.6c17.1,10.6,35.7,19.7,49.1,35.1c6.9,8.8,9.7,19.8,14.8,29.6c-5.4,0.4-10.9,0.1-16.3,0.2
					c-4.1-5.8-6.9-12.7-7.1-19.8c-0.2-3.8-1.7-7.5-4.9-9.6c-12.5-9.2-26.5-15.9-40.2-23.1c-6.9-3.5-10-10.9-13.9-17.1
					c-3.1-7.2-7.9-13.6-11.5-20.7c-2.4,3.5-7,7.5-4.4,12c4.3,12.6,12.2,23.5,17.6,35.7c-5-4.7-10.3-9-16-12.8
					c-12.7-9.3-26-17.8-40-24.9c-1.5,5.1-2.4,10.3-3.6,15.5c-8.4-11.3-17-22.4-25-34c-2.8-2.9-4.6-6.6-7.9-8.9
					c-4,4.7-9.4,7.8-13.3,12.6c-4.7-5.1-6-13.4-12.8-16.3c-4.4-2.6-8.6-5.4-12.7-8.5c-3.4-3.7-8.6-5.4-10.7-10.3
					c-5.5-5.9-10-12.7-14.2-19.6c-0.4-2.2,0.2-4.4,2.2-5.6c13,10.6,25.7,21.6,39.2,31.5c-2.9-4.7-5.5-9.4-8.8-13.8
					c-5.1-3-8-8.3-11.7-12.7c-5.9-6.5-9.5-14.8-14.4-22c3,1,6,1.9,9,3c7.2,3.4,12.8,9.4,18.1,15.2c2.1,3.3,4.9,6,7.8,8.4
					c-4.6-16.1-9.3-32.4-10.3-49.2c-0.9-3.6-2.5-7-4.6-10c-4-6.3-10.7-10.2-14.7-16.4c-1.4-1.9-3-3.6-4.7-5.2
					c-2.8-3.7-7.9-1.1-11.5-3.3c-0.1,4.9,0.1,9.7-0.1,14.6c-1.8,7.2-5,14.3-10.6,19.4c-1.8,1.3-1.2,3.8-2.2,5.5
					c-5.8,12.4-13.8,23.7-22.7,34.1c-5,6.4-11.5,11.5-16.9,17.6c-1.7,2.6-3.7,5.1-6.4,6.8c-11,7-21.5,14.7-31.5,23.1
					c-5.4,1.8-11,2.9-16.6,4.3c-0.5,1.7-1.1,3.4-1.7,5c1.3,3.2,5,6.7,2.5,10.2c-5.6,11.1-8.6,23.5-15.1,34.2c0.1,2.7-0.8,5.8,1,8.1
					c4.1,8,12.9,11.6,19.5,17.3c1.3,1,1.2,2.8,0.7,4.2c-1.2,3.9-2.6,7.7-4.5,11.4c1,0.1,2.9,0.2,3.9,0.2c-3.6,5-8.3,9.1-11.6,14.2
					c-35.9,0-71.8-0.2-107.8,0.1c4.3-5.4,3.8-12.7,6.6-18.8c-2.8,0.1-5.6,0.1-8.3,0.1c-0.9,3-1.1,6.4-3.9,8.4
					c-3.1,2.6-5.8,6-5.5,10.2c-23.6-0.1-47.1-0.1-70.7,0c4.7-6.6,9-13.4,13.5-20.1c-7.5,0.7-15,3.6-20,9.3
					c-2.6,3.5-5.7,6.6-7.6,10.6c-66.4-0.1-132.8,0.2-199.1-0.1c5.5,26.7,13,53,22.9,78.3c14.2,38.7,35.1,74.6,58.7,108.2
					c1.4,0.2,2.9,0.4,4.3,0.6c-0.7,0.4-2.1,1.3-2.8,1.7c2.4,3,4.7,6.1,6.9,9.3c4-3.9,8.9-6.6,13.6-9.5c1.3-0.6,2.4-1.9,3.9-1.7
					c62.5,0,125.1,0,187.6,0c17.4,0.2,34.8-0.4,52.2,0.3c-4.1,12-9.4,23.9-16.7,34.4c-7.8,10.5-20,16.2-28.6,25.8
					c-4.4,4.9-9.7,8.9-13.4,14.3c-9.2,10.1-16.8,21.7-25.3,32.3c-1.9,2.8-2.8,6.2-3.9,9.4c-1.3,3.3-0.1,6.8-0.9,10.2
					c-1.4,4-0.5,8.3-0.9,12.4c-1.2,2.1-3,3.7-4.5,5.5c5,2.9,10.4,5.3,15.8,7.3c13.6,6,27.4,11.3,41.2,16.5
					c37.5,12.4,76.5,20.9,115.9,23.9c-3.8-5.6-6.8-11.6-10.4-17.3c-1.8-3.7-4.5-7.2-4.2-11.5c12.7,6.8,22.2,18.1,30.4,29.7
					c3.9,0.2,7.9-0.2,11.8,0.1c5.7,1.7,11.8,0.9,17.7,1c7.4-1.9,15.1-0.7,22.7-1c-5.3-8.6-10-17.5-15-26.2
					c-2.5-5.4-5.2-10.7-9.2-15.1c-10.6-9.9-24.3-16.3-33.2-27.9c-4.9-5.1-6.3-12.1-7.6-18.8c8.6,1.1,16.9,3.3,25.2,5.4
					c-0.1-0.6-0.4-1.7-0.5-2.3c-4-6.6-6.6-14.1-10.4-20.8c-2.4-6.2-5.9-11.8-9.5-17.4c-3.6-1.9-7.9-2.2-11.7-3.7
					c-8.4-1.9-16.1-5.8-24.4-8.2c-5.2-2.7-10.2-5.8-14.7-9.5c-3.1-2.8-5.8-6.2-9.4-8.4c-1.4-2-2.9-3.8-4.5-5.5
					c-4.8-7.3-7.4-15.7-8.9-24.2c-1-3.5-0.1-7.3-1.6-10.6c9.9-0.7,19.8,2.7,27.6,8.8c5.5,6.9,8,15.6,10.8,23.8
					c4.4,10.6,13.5,19.7,24.7,22.7c6.1,2.1,12.5,3.9,19,4c-2.1-2.9-4.8-5.3-7.3-7.8c-9-10.4-18.2-21.2-22.2-34.7
					c13,4.5,24.4,13.8,30.8,26.1c10.2,16.8,15,36.2,24.3,53.4c2.8,7.1,9.6,11.4,15.7,15.4c6.6,3.6,13.8,5.8,20.6,8.8
					c0.5,3.6-1.3,7-1.1,10.6c0,4.5,0.1,8.9,0,13.4c-11.5-9-22.7-18.5-35.9-24.8c1.2,4.1,3.4,8,5.5,11.7c2.5,1.6,5.4,2.6,7.8,4.4
					c21.1,13,31.3,37,48.3,54.1c2.9-0.8,5.9-1.5,8.9-1.3c-2.3-2.9-4-6.1-6.6-8.7c6.3,1.6,12.8,3.3,18.5,6.8
					c11.3-2.3,22.7-4.2,33.7-7.6c-2.9-5-6.6-9.6-9.8-14.4c5.1,0.6,10-0.7,14.8-2.2c1.5,2.6,2.8,5.3,4.1,8c1,3.3,5.1,3.8,8,4.1
					c4.6-1.1,8.9-3.2,13.6-4c-11-6.7-23.3-10.8-35-15.8c0.1-2.9,0-5.8-0.4-8.6c6.8,1.7,13.6,4.4,20.8,3.6c5.3,1.2,10.8,1.6,16.3,0.9
					c5-1.1,10.9-2.7,15.3,1c2.6,3.4,5.6,6.4,8,10c3.4-1.8,7.2-3,10.6-4.8c-3.2-3.2-6.4-6.6-10.3-9c-9.1-6.3-18.6-12-28.4-17
					c-8-5.4-15.9-11.6-20.7-20.2c6.1-0.5,12.3,0,18.4-0.3c-4.9-5.8-11.7-9.4-18.5-12.3c-4.5-1-8.8-3.3-13.5-2.7
					c1.1,8.3,5.1,15.9,6,24.2c-5.7-5.5-12.5-9.4-19.3-13.3c-5.7-2-11.1-4.7-16.8-6.7c-1.3-9.8-5.3-19.2-5.9-29.1
					c11.8,1.7,23.6,3.9,35.4,5.3c-5.4-9.5-10.9-19-17.7-27.5c0.3,5.5,2.2,11.1,1.1,16.7c-5.1-3.3-9.3-7.8-14.4-11.1
					c-2,3.3-4.6,6.2-6.3,9.7c-0.7,1.5-2,2.6-3.3,3.7c-3.2-3.4-6.6-6.6-10-9.8c-5-6.3-10.4-12.5-14.2-19.6c4.2-0.2,8.1,1.1,12.2,1.7
					c3.4,1.3,6.8-1.1,10.3-0.6c-5.3-7.8-12.9-13.7-19.2-20.5c-8.2-6.7-16.6-13.2-25.9-18.2c16.9-0.4,33.8-0.2,50.7-0.1
					c2.8,3.5,2.2,8.7,2.9,13c1.5,5.1,0.5,10.4,0.9,15.6c0.3,0.3,0.9,0.9,1.2,1.2c6.5,1,12.9,2.6,19.4,3.7c4.6-2.2,8.3-5.7,13-7.8
					c3,13.2,2.3,27.2,6.8,40.1c7.3,4.9,15,9.3,23.2,12.4c8.5,4.8,18.1,7.8,25.4,14.4c6.4,4.7,12.7,9.8,19.5,13.9
					c14.4,10.3,29.3,20,45.5,27.4c18.6-10.3,36.1-22.3,53.3-34.7c-1.7-1.5-3.6-2.8-5.7-3.7c-15.2-6.8-32-8.4-47.8-13.5
					c0.6-2-0.4-4.5,1.3-6.1c1.3-2.6,4.6-4.2,4.3-7.4c-9.3-3.8-18.4-8.2-27.9-11.7c-8.5-4.6-16.9-9.4-24.7-15.2
					c-9.7-7.7-19-15.7-28.2-23.9c-7.7-5.4-14.5-11.8-22-17.5c6-0.2,12.1-0.2,18.2-0.1c9.3,7.9,19.4,14.9,29.5,21.8
					c17,12,34.4,23.4,52.1,34.4c4,2.4,8.3,4.2,12.1,6.9c12,7.8,24.6,14.5,36.7,22.2c4,2.5,8.4,4.2,13,5.3
					c11.9-10.1,24.2-19.9,34.7-31.4c-4.6-5.2-8.3-11-11.8-17c8.1,0.3,15.9,2.9,23.4,5.6c2.1-1.8,4.5-3.8,5.5-6.4
					c-1.5-2.6-4-4.3-6.4-5.9c4.7-1.7,10.2-0.2,14.8-2.7c2.5-2.5,4.6-5.4,6.9-8.2c-2.6-2.5-5.5-4.7-8.8-6.2c-3-0.1-5.9-0.4-8.7-1.2
					c-14-0.3-27.9,0.1-41.9-0.1c-11.2-3-19.7-11.1-29.4-17c13.1-0.2,26.2-0.2,39.3,0c3.9,1.3,8,0.7,12,1.3
					c5.6,1.9,11.7-0.2,17.3,1.6c10.3,1,21.4,2.7,29.7,9.5c3.1-2.8,5.4-6.4,7.9-9.7c5-6.9,10.2-13.7,14.5-21
					c17.3-26,32.2-53.7,43.8-82.7c10.9-27.7,19.9-56.3,25.7-85.6c-35,0-70-0.1-104.9,0c-4.1-17.7-10.6-34.8-13.3-52.8
					c-24.8-24.8-40.5-57.3-66.2-81.4c-3.7-4.9-8.5-9.2-10.2-15.3c-6-13.7-7.7-30.2-19.4-40.6c-4.7-4.6-9.2-9.3-13.9-13.8
					c-7.6-5.3-13-13.1-20.6-18.4c-16-14.5-34.1-26.4-49.4-41.6c-6.5-5.8-10.8-13.6-17-19.6c-5.2-7.7-13-12.9-19.6-19.2
					c-7.6-5.7-15.7-10.8-22.5-17.5c-7.1-7.1-8.3-17.4-12.8-26c-8.4-4-16-9.3-24.1-14.1c-1-1-0.5-0.5-1-1
					c-10.8-8.5-20.8-16.8-32.3-24.2c-12.4-7.3-18.8-22.3-32.6-27.5c-16.7-6.3-32.8-15-50.6-18.1c-5.5-1.6-11.2-0.7-16.8-1
					c-2.9,0.1-6.1-0.6-8.5,1.3C437.3,177.1,433.2,178.9,430.6,182.3L430.6,182.3z M465.8,433.9c-10.7,6-21.4,12.3-33.2,16.1
					c3.4,6.1,5.3,12.9,9.1,18.8c22.9-13.7,42.2-32.3,65-46.2c5.2-3.1,10.4-6.4,16.3-8.1c-7.1-3.6-15.5-3.1-23-0.8
					C487,417.5,476.5,426.3,465.8,433.9L465.8,433.9z M394.3,458.6c1.3,3.3,4.4,5.6,8,5.4c2.4-2,4.4-4.3,6.6-6.5
					c-1.2-3.8-6.1-7-9.9-4.7C396.5,453.8,395.8,456.7,394.3,458.6L394.3,458.6z M306.6,503.5c-4,3.6-8.9,6.2-12.2,10.5
					c23.4-7.7,46.6-16.1,68.5-27.4c4-1.5,3.5-6.4,4.6-9.8c-6.3,2.9-13.1,4.5-19.6,7C333.7,489.4,319.2,494.8,306.6,503.5
					L306.6,503.5z M392.2,515.9c-4.5,7.8-9.9,15.1-14.5,22.8c2.4,0.1,4.7,0.2,7.1,0c2.3-1.4,4.5-3,6.7-4.5c2.2,0.8,4.4,1.5,6.6,2.3
					c1-0.6,1.9-1.2,2.9-1.8c12-11.7,24.7-23,34-37.1c-12.7-1-25.5,3.4-35.7,10.9C396.8,511,394.5,513.4,392.2,515.9L392.2,515.9z
					 M278.7,526.4c-1.6,4.4-5.7,7-8.5,10.6c-2.3,3.9-6.2,6.4-8.7,10.2c-4,4.1-8.9,7.4-14.2,9.6c2.6-7.9,6.9-15.1,9.9-22.9
					c-8.3,3.7-16.2,8.3-24.5,12c0.6,3.7,3.7,6.4,5.6,9.6c3.7,3.6,7.1,8.1,11.4,10.8c6.1-2.4,11.7-5.7,17.3-9.1
					c5.3-2.9,11-5.1,15.9-8.5c6-3.2,12.4-5.9,18.1-9.7c11.2-7.3,23.1-13.6,33.6-21.9c6.2-4.2,10.9-10.1,16.3-15.2
					c-13.8,5.7-28,10.5-42.4,14.6C298.6,519.9,288.7,523.4,278.7,526.4L278.7,526.4z M361.7,555.7c2.4-2,4.7-4.2,5.6-7.2
					c0.3-2.7-1-5.1-1.6-7.6c-2.4,0-4.8,0.4-7.1,1.4C356.2,546.9,357.3,552.6,361.7,555.7L361.7,555.7z M372.5,573.3
					c1.4-1.2,2.7-2.5,4-3.8c-1.5-1.8-3.1-3.5-4.8-5.1c-1.5,1.4-3.1,2.9-4.4,4.5C366.7,571.8,369.8,574.3,372.5,573.3L372.5,573.3z
					 M311.2,571.6c-9.9,0.5-19.7,4.5-26.7,11.6C294.6,583.9,304.2,578.4,311.2,571.6L311.2,571.6z M422.6,595.4c3-1.7,6-3,8.9-4.8
					c0.7-3.6-2-6.1-5.4-6.4c-3.6,1.5-7.7,4.3-8.1,8.5C419.5,593.7,421,594.5,422.6,595.4L422.6,595.4z M166.4,811.8
					c7.9,4,17.8-0.4,22.1-7.6c-2.5-3.8-7.6-3.3-10.9-1C173.2,805.1,169.6,808.3,166.4,811.8L166.4,811.8z M237.7,832.2
					c-9.1,4.4-18.6,8.2-28.4,10.7c-0.3-3.6,0.8-7.5-1.3-10.6c-1.9-2.8-0.7-6.3,0.4-9.1c-6.2-0.7-12.3,1.1-18.3,2.4
					c-6.8,4.7-13.9,9.2-19.7,15.1c3,3,5.9,6.2,9.1,9c4.7-3.6,9.9-6.7,13.8-11.3c3.2,1.9,6.2,4.2,9.5,6c-0.9,2.1-1.3,4.4-1.3,6.7
					c11.4,0,21.6-5.8,31.8-10.1c9.3-5.7,19.4-10.1,28.9-15.3c7.3-3.6,14.8-7.1,21-12.4c2.9-2.9,5.8-5.8,8.7-8.7
					c-3.2,0.9-6.4,0.9-9.7,1.1C267.2,814.3,252.8,823.9,237.7,832.2L237.7,832.2z M305.4,852.5c7.9-2.6,15.1-7.9,19.9-14.7
					c4.3-4.6,7.4-10.3,9.4-16.3c1.2-2.4-1.7-5.1-4-5.1c-4.5,2.9-8.9,5.9-12.9,9.3C313,834.3,309.4,843.5,305.4,852.5L305.4,852.5z
					 M239,874c2.9,0.1,5.9,0.4,8.7-0.6c13.8-0.7,27.1-6.1,38.7-13.4c3.9-3.3,8.8-5.4,11.8-9.6c-16.9,1.2-32.9,7.1-49.3,11
					C243.7,863.7,242.1,869.7,239,874L239,874z M207.4,875.2c12.8-2.5,27.5-7.1,33.6-19.8c-13.1,5.3-27.3,7.6-39.9,14.1
					C203.1,871.4,205.2,873.3,207.4,875.2L207.4,875.2z M254.2,909.5c3.2,2.1,6.4,4.2,9.7,6.2c2.7-7.9,5.9-15.8,5.9-24.3
					c-3.8,1.3-8.1,2.3-10.6,5.8C256.8,900.9,254.7,905,254.2,909.5L254.2,909.5z M664.4,907.2c1.4,3.4,3.2,6.7,4.8,10.1
					c10.5,1.7,20.6,6.5,28,14.2c3.7,4,8.2,7.3,10.9,12.1c3.1-1.2,6.1-2.6,9.1-3.9c-4.6-4.8-9-10.1-14.8-13.4
					C690.8,917.9,677,913.7,664.4,907.2L664.4,907.2z"/>
			</defs>
			<clipPath id="SVGID_3_">
				<use xlink:href="#SVGID_1_"  style="overflow:visible;"/>
			</clipPath>
			<clipPath id="SVGID_4_" class="st2">
				<use xlink:href="#SVGID_2_"  style="overflow:visible;"/>
			</clipPath>
			<rect x="7.9" y="7.7" class="st3" width="1008.1" height="1009.2"/>
		</g>
		<g>
			<defs>
				<rect id="SVGID_5_" width="1024" height="1024"/>
			</defs>
			<defs>
				<path id="SVGID_6_" d="M628.6,322.6c-1-2.2,1.2-4.2,1.8-6.2c6.2,3.9,11.2,9.3,16.3,14.6c8,12.9,21.1,21.3,32.9,30.4
					c7.9,5.3,15.9,10.6,23.3,16.6c5.4,1.9,8.5,7.1,12.1,11.2c3.7,4.2,6.1,9.4,9.6,13.8c4.3,5.7,10.4,9.7,14.3,15.7
					c5,5.3,10.3,10.5,15.6,15.6c4.5,2.7,8,6.7,11.6,10.5c3.7,5,1.6,11.5,2.1,17.2c-0.9,3.9-1.3,7.8-1.2,11.8c6.6,5.5,14,9.8,20.8,15
					c5.6,3.7,11,7.6,16.9,10.9c7.9,10.1,18.1,18.8,23.4,30.8c-9.5-3.5-17.9-9.1-26.6-14.3c-4.5-3.4-10-5.3-13.8-9.5
					c-2.8-3.2-6.8-4.9-9.4-8.4c-3.3-4.8-7.9-8.5-10.9-13.6c-2.4-7.3-7.6-13.2-11.4-19.8c-11.5-18.5-25.1-35.5-37.9-53.2
					c-4-4.9-7.9-9.9-12.3-14.4c-4.9-7.3-12.5-12-17.7-18.9c-7.1-2.2-12.9-7-19.3-10.7c-4.1-3.3-8.7-6-12.4-9.9
					c-6.4-6.6-13.5-12.6-18.5-20.4C634.9,332.5,631.1,327.9,628.6,322.6L628.6,322.6z"/>
			</defs>
			<clipPath id="SVGID_7_">
				<use xlink:href="#SVGID_5_"  style="overflow:visible;"/>
			</clipPath>
			<clipPath id="SVGID_8_" class="st4">
				<use xlink:href="#SVGID_6_"  style="overflow:visible;"/>
			</clipPath>
			<rect x="623.3" y="311.4" class="st5" width="209.6" height="224"/>
		</g>
		<g>
			<defs>
				<rect id="SVGID_9_" width="1024" height="1024"/>
			</defs>
			<defs>
				<path id="SVGID_10_" d="M581.9,318.7c5.3,3.5,10.9,6.5,16.2,10c5.6-3.4,10.9-7.2,16.7-10.2c3.3,0.6,5.5,3.1,7.7,5.3
					c-5.6,1.9-11.6,2.7-17.1,5.1c6.7,4.3,12.5,9.9,19.1,14.4c3,2.4,5.9,4.9,8.7,7.6c-2.5,2.5-4.4,5.6-6.5,8.5
					c4.6,3.6,9.9,6,14.7,9.1c11,5.8,21.7,12.2,32.2,18.9c16.9,8,30.1,22,40.5,37.3c5.1,6.6,8.6,14.3,13.4,21.2
					c-2.1,0.7-4.1,1.6-6.3,2c-3.7-1.4-4.8-5.7-7.7-8.1c-17-16.3-33.5-33.2-50-50c-4.6-4.6-11.4-1.3-16.9-3.4
					c-6.1-0.7-12.3,0.4-18.2-1.7c-3.9-8.7-8.5-17.1-12.7-25.7c3.2-2.9,6.3-6,9.2-9.3c-4.5-2.2-8.9-4.5-13.4-6.7
					c-4.6-1.7-9.4-2.9-14.1-4.1c-4.3-1.5-8.9,0.1-13.1-1.3c-2.6-0.7-5.3-0.4-8-0.6C577.1,330.6,580.8,325,581.9,318.7L581.9,318.7z"
					/>
			</defs>
			<clipPath id="SVGID_11_">
				<use xlink:href="#SVGID_9_"  style="overflow:visible;"/>
			</clipPath>
			<clipPath id="SVGID_12_" class="st6">
				<use xlink:href="#SVGID_10_"  style="overflow:visible;"/>
			</clipPath>
			<rect x="571.3" y="313.5" class="st7" width="161.2" height="139.3"/>
		</g>
		<g>
			<defs>
				<rect id="SVGID_13_" width="1024" height="1024"/>
			</defs>
			<defs>
				<path id="SVGID_14_" d="M659.3,403.3c4.3-2.9,8.8,0.3,11.6,3.6c0,1.2,0.1,2.4,0.1,3.5c-2.2,3.2-6,2.7-9.4,2.6
					c-1.2-1.2-2.5-2.4-3.6-3.8C657.1,407.2,658.6,405.2,659.3,403.3L659.3,403.3z"/>
			</defs>
			<clipPath id="SVGID_15_">
				<use xlink:href="#SVGID_13_"  style="overflow:visible;"/>
			</clipPath>
			<clipPath id="SVGID_16_" class="st8">
				<use xlink:href="#SVGID_14_"  style="overflow:visible;"/>
			</clipPath>
			<rect x="652.7" y="397.1" class="st9" width="23.3" height="21"/>
		</g>
		<g>
			<defs>
				<rect id="SVGID_17_" width="1024" height="1024"/>
			</defs>
			<defs>
				<path id="SVGID_18_" d="M489.1,500.1c3.1-2.1,7-1,10.5-2.2c5.7-0.5,11.6-0.2,17.3-0.2c7.3,1.4,14.7,2.2,21.7,4.8
					c12,4.3,23.8,10.5,32.7,19.8c-0.2,4.1-1.3,8.1-2.3,12.1c-5.3-2.5-10.4-5.4-15.9-7.6c-6.7-4.2-11.9-10.5-18.9-14.4
					C519.7,506.4,503,508.1,489.1,500.1L489.1,500.1z"/>
			</defs>
			<clipPath id="SVGID_19_">
				<use xlink:href="#SVGID_17_"  style="overflow:visible;"/>
			</clipPath>
			<clipPath id="SVGID_20_" class="st10">
				<use xlink:href="#SVGID_18_"  style="overflow:visible;"/>
			</clipPath>
			<rect x="484.1" y="492.6" class="st11" width="92.2" height="46.8"/>
		</g>
		<g>
			<defs>
				<rect id="SVGID_21_" width="1024" height="1024"/>
			</defs>
			<defs>
				<path id="SVGID_22_" d="M790.1,547.9c1-1.8,3.3-1.8,5-1.1c4.1,1.7,7.5,5.7,6.9,10.4c-1.2,0.8-2.3,1.5-3.5,2.2
					C793.3,558.7,788.8,553.3,790.1,547.9L790.1,547.9z"/>
			</defs>
			<clipPath id="SVGID_23_">
				<use xlink:href="#SVGID_21_"  style="overflow:visible;"/>
			</clipPath>
			<clipPath id="SVGID_24_" class="st12">
				<use xlink:href="#SVGID_22_"  style="overflow:visible;"/>
			</clipPath>
			<rect x="784.9" y="541.3" class="st13" width="22.3" height="23"/>
		</g>
		<g>
			<defs>
				<rect id="SVGID_25_" width="1024" height="1024"/>
			</defs>
			<defs>
				<path id="SVGID_26_" d="M608.2,560.4c0.7,0.2,2.1,0.5,2.8,0.6c8.6,7.7,15,17.8,24.6,24.4c3.2,2.4,6.3,4.8,9.7,6.9
					c5.8,4.9,12.8,7.9,18.7,12.6c-5.7,0.2-11.4,0.1-17.1,0.1c-4.5,0.4-7.1-3.9-10.7-5.8c-9.8-7.3-19.5-14.5-29.2-21.9
					C606.4,571.7,607.4,566.1,608.2,560.4L608.2,560.4z"/>
			</defs>
			<clipPath id="SVGID_27_">
				<use xlink:href="#SVGID_25_"  style="overflow:visible;"/>
			</clipPath>
			<clipPath id="SVGID_28_" class="st14">
				<use xlink:href="#SVGID_26_"  style="overflow:visible;"/>
			</clipPath>
			<rect x="601.7" y="555.4" class="st15" width="67.2" height="54.7"/>
		</g>
		<g>
			<defs>
				<rect id="SVGID_29_" width="1024" height="1024"/>
			</defs>
			<defs>
				<path id="SVGID_30_" d="M493.8,564c8.1-0.8,16,2.8,22.1,8c4.4,2.3,7.2,6.6,11,9.7c3.1-1.9,6.1-4,9.2-6
					c7.2,3.1,14.8,5.4,21.9,8.8c0.2,6.9,0.1,13.8,0.1,20.8c-7.6,1-14.5-2.5-21.2-5.3c-9.9-4.8-19.5-10.4-27.5-18
					c-3.7-1.8-5.1-5.9-8.3-8.4C497.9,570.9,496.4,567,493.8,564L493.8,564z"/>
			</defs>
			<clipPath id="SVGID_31_">
				<use xlink:href="#SVGID_29_"  style="overflow:visible;"/>
			</clipPath>
			<clipPath id="SVGID_32_" class="st16">
				<use xlink:href="#SVGID_30_"  style="overflow:visible;"/>
			</clipPath>
			<rect x="488.8" y="558.9" class="st17" width="74.3" height="51.4"/>
		</g>
		<g>
			<defs>
				<rect id="SVGID_33_" width="1024" height="1024"/>
			</defs>
			<defs>
				<path id="SVGID_34_" d="M802.6,565c4.4,1.5,7.9,4.6,12.1,6.6c3.9,1.9,7.8,4,11.1,6.9c3.6,8.5,8.2,17.2,7.5,26.7
					c-1.7,0-3.4,0-5.1,0c-1.6-3.6-3.4-7.1-5.2-10.6c-3-5.8-7.6-10.5-10.6-16.2C809.3,573.7,805.3,569.8,802.6,565L802.6,565z"/>
			</defs>
			<clipPath id="SVGID_35_">
				<use xlink:href="#SVGID_33_"  style="overflow:visible;"/>
			</clipPath>
			<clipPath id="SVGID_36_" class="st18">
				<use xlink:href="#SVGID_34_"  style="overflow:visible;"/>
			</clipPath>
			<rect x="797.6" y="560" class="st19" width="40.8" height="50.2"/>
		</g>
		<g>
			<defs>
				<rect id="SVGID_37_" width="1024" height="1024"/>
			</defs>
			<defs>
				<path id="SVGID_38_" d="M692.3,581.6c14.8,8.4,30.3,15.4,45.1,23.6c-11.2-0.1-22.4-0.1-33.6,0
					C700.2,597.2,695.8,589.6,692.3,581.6L692.3,581.6z"/>
			</defs>
			<clipPath id="SVGID_39_">
				<use xlink:href="#SVGID_37_"  style="overflow:visible;"/>
			</clipPath>
			<clipPath id="SVGID_40_" class="st20">
				<use xlink:href="#SVGID_38_"  style="overflow:visible;"/>
			</clipPath>
			<rect x="687.3" y="576.6" class="st21" width="55.1" height="33.6"/>
		</g>
		<g>
			<defs>
				<rect id="SVGID_41_" width="1024" height="1024"/>
			</defs>
			<defs>
				<path id="SVGID_42_" d="M507,601.8c3.5-0.4,7.1,0.5,9.4,3.2c-2.6,0.1-5.2,0.1-7.8,0.1C508.1,604,507.5,602.9,507,601.8
					L507,601.8z"/>
			</defs>
			<clipPath id="SVGID_43_">
				<use xlink:href="#SVGID_41_"  style="overflow:visible;"/>
			</clipPath>
			<clipPath id="SVGID_44_" class="st22">
				<use xlink:href="#SVGID_42_"  style="overflow:visible;"/>
			</clipPath>
			<rect x="502" y="596.7" class="st23" width="19.4" height="13.4"/>
		</g>
		<g>
			<defs>
				<rect id="SVGID_45_" width="1024" height="1024"/>
			</defs>
			<defs>
				<path id="SVGID_46_" d="M124.9,625.9c14.9-0.1,29.8-0.6,44.8-0.2c14.7,0.6,30.5,5.4,39.7,17.5c12.4,18.4,9.9,46.6-8,60.6
					c-9.3,8.3-22.1,10-34.1,10.6c-6,0.2-12-0.5-18-0.8c-0.1,16.6-0.1,33.1,0,49.7c-8.1,0.1-16.2,0-24.4,0.1
					C124.7,717.6,124.8,671.7,124.9,625.9 M149.3,648.8c0,14,0,28,0,42.1c10.9,0.7,22.9,3,32.9-2.9c9.6-5.5,11.7-18.7,7.6-28.3
					c-2.3-5.7-8.1-9.1-14-10.3C167.1,647.6,158.1,648.7,149.3,648.8L149.3,648.8z"/>
			</defs>
			<clipPath id="SVGID_47_">
				<use xlink:href="#SVGID_45_"  style="overflow:visible;"/>
			</clipPath>
			<clipPath id="SVGID_48_" class="st24">
				<use xlink:href="#SVGID_46_"  style="overflow:visible;"/>
			</clipPath>
			<rect x="119.8" y="620.6" class="st25" width="102.3" height="147.8"/>
		</g>
		<g>
			<defs>
				<rect id="SVGID_49_" width="1024" height="1024"/>
			</defs>
			<defs>
				<path id="SVGID_50_" d="M487.3,625.9c8.5,0,17-0.1,25.5,0.1c6.9,17.5,14,34.9,21.1,52.3c5.9,16.7,13.1,32.8,19.5,49.3
					c9.3-22.8,17.8-46,26.8-68.9c3.2-10.2,7.5-20,11.2-30.1c0.5-1.1,0.8-3,2.4-2.6c7.6-0.1,15.3,0,22.9,0
					c-9.1,23.4-18.7,46.6-28,69.9c-8.9,22.6-17.6,45.3-26.9,67.8c-6.2,0-12.4,0.1-18.6,0c-1.4-3.5-2.9-6.9-4.4-10.4
					c-10-26.3-21.3-52.1-31.8-78.2C500.5,658.7,493,642.6,487.3,625.9L487.3,625.9z"/>
			</defs>
			<clipPath id="SVGID_51_">
				<use xlink:href="#SVGID_49_"  style="overflow:visible;"/>
			</clipPath>
			<clipPath id="SVGID_52_" class="st26">
				<use xlink:href="#SVGID_50_"  style="overflow:visible;"/>
			</clipPath>
			<rect x="482.3" y="620.9" class="st27" width="139.5" height="147.8"/>
		</g>
		<g>
			<defs>
				<rect id="SVGID_53_" width="1024" height="1024"/>
			</defs>
			<defs>
				<path id="SVGID_54_" d="M404.6,626c7.6-0.1,15.2-0.1,22.8,0c0.1,45.8,0,91.6,0,137.4c-7.6,0-15.3,0.1-22.9,0
					C404.6,717.6,404.5,671.8,404.6,626L404.6,626z"/>
			</defs>
			<clipPath id="SVGID_55_">
				<use xlink:href="#SVGID_53_"  style="overflow:visible;"/>
			</clipPath>
			<clipPath id="SVGID_56_" class="st28">
				<use xlink:href="#SVGID_54_"  style="overflow:visible;"/>
			</clipPath>
			<rect x="399.6" y="620.9" class="st29" width="32.9" height="147.5"/>
		</g>
		<g>
			<defs>
				<rect id="SVGID_57_" width="1024" height="1024"/>
			</defs>
			<defs>
				<path id="SVGID_58_" d="M637.3,631.2c7.9-3.8,18.3,1.8,18.8,10.7c1.4,8.7-7,17.9-15.9,15.4c-7.9-1-13.3-10.1-10.8-17.5
					C630.3,635.8,633.5,632.6,637.3,631.2L637.3,631.2z"/>
			</defs>
			<clipPath id="SVGID_59_">
				<use xlink:href="#SVGID_57_"  style="overflow:visible;"/>
			</clipPath>
			<clipPath id="SVGID_60_" class="st30">
				<use xlink:href="#SVGID_58_"  style="overflow:visible;"/>
			</clipPath>
			<rect x="623.7" y="625" class="st31" width="37.5" height="37.7"/>
		</g>
		<g>
			<defs>
				<rect id="SVGID_61_" width="1024" height="1024"/>
			</defs>
			<defs>
				<path id="SVGID_62_" d="M244.8,676.2c8.3-3.1,17.5-4.2,26.3-2.8c12.1,1.6,23,9.3,29.4,19.7c6.1,9.8,5.6,22,4.1,33
					c-21.3,0.1-42.6,0-63.9,0.1c0.9,8.4,6.8,15.9,14.8,18.6c12.2,4.4,26.3,1.6,36.6-6c2.1,5.4,4.7,10.6,6.3,16.2
					c-12.7,9.7-29.8,12.5-45.3,9.5c-9.3-1.9-18.5-6.1-24.8-13.5c-9.8-10.6-12.9-26.2-10.5-40.2C219.9,695.6,230.6,681.9,244.8,676.2
					 M250.2,694.9c-6,3.3-9.1,9.9-10.4,16.4c14.4,0,28.7,0,43.1,0c0.6-6.8-3.2-13.8-9.3-16.9C266.4,690.7,257.3,691.1,250.2,694.9
					L250.2,694.9z"/>
			</defs>
			<clipPath id="SVGID_63_">
				<use xlink:href="#SVGID_61_"  style="overflow:visible;"/>
			</clipPath>
			<clipPath id="SVGID_64_" class="st32">
				<use xlink:href="#SVGID_62_"  style="overflow:visible;"/>
			</clipPath>
			<rect x="212" y="667.8" class="st33" width="98.6" height="102.8"/>
		</g>
		<g>
			<defs>
				<rect id="SVGID_65_" width="1024" height="1024"/>
			</defs>
			<defs>
				<path id="SVGID_66_" d="M319.4,681.2c13.2-7.8,29.4-10.4,44.3-6.9c6.4,1.5,12.3,5.1,16,10.6c4.7,6.9,6,15.4,6,23.6
					c0.1,18.3,0,36.6,0.1,54.9c-6.6,0.1-13.1,0-19.7,0c0-3.2,0.1-6.3,0-9.5c-6.2,7.4-16.1,10.8-25.5,10.6
					c-7.8,0.3-15.7-2.5-21.4-7.9c-11.2-12.2-8.8-34.8,6-43.2c12.2-6,27.3-5.8,39.3,0.7c0-5.8-0.2-12-3.6-16.9
					c-2.8-3.9-8-5.2-12.6-5.2c-8.2,0-16,2.8-23.4,6.1C323.1,692.4,320.7,687,319.4,681.2 M338.4,727.6c-5.2,4.3-4.2,13.8,2.1,16.5
					c8,3.5,18.5,0.9,23.7-6.2c0.6-3.2,0.2-6.5,0.1-9.7c-3.2-1.8-6.7-3.4-10.4-3.7C348.6,724.1,342.7,723.9,338.4,727.6L338.4,727.6z
					"/>
			</defs>
			<clipPath id="SVGID_67_">
				<use xlink:href="#SVGID_65_"  style="overflow:visible;"/>
			</clipPath>
			<clipPath id="SVGID_68_" class="st34">
				<use xlink:href="#SVGID_66_"  style="overflow:visible;"/>
			</clipPath>
			<rect x="307.2" y="667.8" class="st35" width="83.7" height="101.7"/>
		</g>
		<g>
			<defs>
				<rect id="SVGID_69_" width="1024" height="1024"/>
			</defs>
			<defs>
				<path id="SVGID_70_" d="M701.4,673.2c13.8-1.5,29,1.2,39.5,10.8c-2.8,5.5-5.6,10.9-8.6,16.3c-7.7-5.9-17.8-9.7-27.6-8
					c-3.8,0.7-8,4-7.1,8.3c1.6,5,7.3,6.7,11.8,8.4c9.6,2.8,20.3,3.9,28,11c11.5,9.3,9.6,28.9-1.5,37.7c-12.9,9.2-30.5,9.8-45,4.4
					c-6.6-2.7-13.9-5.2-18.2-11.3c3.1-5.3,7-10,10.7-14.9c6.7,6.1,15.6,9.3,24.5,10.7c4.6,0.6,10.5,0.4,13.2-4
					c2.2-3.1,1.1-7.7-2.1-9.6c-5.3-3.1-11.5-4.3-17.3-6.2c-8.5-2.6-17.6-5.9-23-13.4c-4.4-5.7-4.5-13.5-3.2-20.3
					C678.5,681.5,690,674.3,701.4,673.2L701.4,673.2z"/>
			</defs>
			<clipPath id="SVGID_71_">
				<use xlink:href="#SVGID_69_"  style="overflow:visible;"/>
			</clipPath>
			<clipPath id="SVGID_72_" class="st36">
				<use xlink:href="#SVGID_70_"  style="overflow:visible;"/>
			</clipPath>
			<rect x="667.7" y="667.9" class="st37" width="82.5" height="102.7"/>
		</g>
		<g>
			<defs>
				<rect id="SVGID_73_" width="1024" height="1024"/>
			</defs>
			<defs>
				<path id="SVGID_74_" d="M797.2,673c10.3-0.8,21,0.9,30.1,6.1c10.8,6.3,19,17,21.5,29.4c2.7,13.8,0.5,29.2-8.7,40.3
					c-7.3,9.8-19.3,15-31.1,16.5c-13.6,1.7-28.1-1.4-39.2-9.6c-7.5-6.7-13.2-15.7-15-25.7c-2.6-14-0.3-29.6,9.3-40.6
					C771.9,679.1,784.6,673.7,797.2,673 M796,694.9c-10.6,2.3-18.5,12.8-18,23.6c-0.4,6.6,1.7,13.3,6,18.3
					c7.9,9.2,23.3,10.5,32.6,2.8c12.3-9.7,12.2-31.2-0.4-40.6C810.7,694.5,802.9,693.5,796,694.9L796,694.9z"/>
			</defs>
			<clipPath id="SVGID_75_">
				<use xlink:href="#SVGID_73_"  style="overflow:visible;"/>
			</clipPath>
			<clipPath id="SVGID_76_" class="st38">
				<use xlink:href="#SVGID_74_"  style="overflow:visible;"/>
			</clipPath>
			<rect x="748.8" y="667.8" class="st39" width="106.1" height="102.8"/>
		</g>
		<g>
			<defs>
				<rect id="SVGID_77_" width="1024" height="1024"/>
			</defs>
			<defs>
				<path id="SVGID_78_" d="M888.1,683.2c7.7-10.2,22.8-12.5,33.8-6.6c-2.5,7.3-5.3,14.4-8.2,21.5c-5.5-3-12.4-4.6-18.2-1.7
					c-4,2.1-8,6.2-7.4,11c0.1,18.6,0,37.3,0,55.9c-7.6,0.1-15.2,0-22.8,0c-0.2-29.3,0.1-58.5-0.1-87.8c7.5-1.4,15.3-0.3,22.9-0.6
					C888.1,677.7,888.1,680.4,888.1,683.2L888.1,683.2z"/>
			</defs>
			<clipPath id="SVGID_79_">
				<use xlink:href="#SVGID_77_"  style="overflow:visible;"/>
			</clipPath>
			<clipPath id="SVGID_80_" class="st40">
				<use xlink:href="#SVGID_78_"  style="overflow:visible;"/>
			</clipPath>
			<rect x="860.1" y="668.4" class="st41" width="66.7" height="100.1"/>
		</g>
		<g>
			<defs>
				<rect id="SVGID_81_" width="1024" height="1024"/>
			</defs>
			<defs>
				<path id="SVGID_82_" d="M427.8,717.3c10.7-14,20.9-28.4,31.5-42.4c9.4,0,18.9-0.1,28.3,0c-10.6,13.8-21.9,27-33,40.4
					c11.9,16.2,24.8,31.7,36.7,47.9c-9.6,0.2-19.2,0.1-28.8,0.1C450.6,748.3,439.5,732.6,427.8,717.3L427.8,717.3z"/>
			</defs>
			<clipPath id="SVGID_83_">
				<use xlink:href="#SVGID_81_"  style="overflow:visible;"/>
			</clipPath>
			<clipPath id="SVGID_84_" class="st42">
				<use xlink:href="#SVGID_82_"  style="overflow:visible;"/>
			</clipPath>
			<rect x="422.8" y="669.9" class="st43" width="73.6" height="98.5"/>
		</g>
		<g>
			<defs>
				<rect id="SVGID_85_" width="1024" height="1024"/>
			</defs>
			<defs>
				<path id="SVGID_86_" d="M631.2,676.4c0.3-0.4,1-1.1,1.3-1.5c7.2-0.1,14.3,0,21.5,0c0.2,29.5,0,59,0.1,88.4
					c-7.6,0-15.3,0.1-22.9-0.1C631.1,734.4,630.9,705.4,631.2,676.4L631.2,676.4z"/>
			</defs>
			<clipPath id="SVGID_87_">
				<use xlink:href="#SVGID_85_"  style="overflow:visible;"/>
			</clipPath>
			<clipPath id="SVGID_88_" class="st44">
				<use xlink:href="#SVGID_86_"  style="overflow:visible;"/>
			</clipPath>
			<rect x="626" y="669.9" class="st45" width="33" height="98.5"/>
		</g>
	</g>
</g>
</svg>
