<?xml version="1.0" encoding="UTF-8"?> <svg xmlns="http://www.w3.org/2000/svg" width="204.229" height="48" viewBox="0 0 204.229 48"><g id="Group_226" data-name="Group 226" transform="translate(-42 -17)"><path id="Path_13" data-name="Path 13" d="M655.11,522.075l-6.179-11.656h-2.514l7.634,13.984h1.958l7.316-13.984h-2.315Z" transform="translate(-534.763 -467.502)" fill="#2d3f4e"></path><path id="Path_14" data-name="Path 14" d="M771.036,516.227h-8.811v-3.9h9.9v1.453l2,0v-.291a3.246,3.246,0,0,0-.708-2.388,3.72,3.72,0,0,0-2.573-.681h-7.449a3.609,3.609,0,0,0-2.58.695,3.789,3.789,0,0,0-.675,2.613v1.217a3.788,3.788,0,0,0,.675,2.613,3.608,3.608,0,0,0,2.58.695h8.785v4.207H761.762V520.7l-2.17.011v.384a3.737,3.737,0,0,0,.688,2.613,3.661,3.661,0,0,0,2.593.695h8.163a3.608,3.608,0,0,0,2.567-.688,3.787,3.787,0,0,0,.675-2.62v-1.574a3.712,3.712,0,0,0-.688-2.606A3.615,3.615,0,0,0,771.036,516.227Z" transform="translate(-627.113 -467.502)" fill="#2d3f4e"></path><path id="Path_15" data-name="Path 15" d="M886.008,516.227H877.2v-3.9h9.9v1.453l2,0v-.291a3.247,3.247,0,0,0-.708-2.388,3.72,3.72,0,0,0-2.573-.681h-7.448a3.609,3.609,0,0,0-2.58.695,3.79,3.79,0,0,0-.675,2.613v1.217a3.789,3.789,0,0,0,.675,2.613,3.608,3.608,0,0,0,2.58.695h8.785v4.207H876.734v-1.746h-2.17v.384a3.737,3.737,0,0,0,.688,2.613,3.66,3.66,0,0,0,2.593.695h8.163a3.608,3.608,0,0,0,2.567-.688,3.787,3.787,0,0,0,.675-2.62v-1.574a3.711,3.711,0,0,0-.688-2.606A3.614,3.614,0,0,0,886.008,516.227Z" transform="translate(-720.93 -467.502)" fill="#2d3f4e"></path><path id="Path_16" data-name="Path 16" d="M332.57,390.836V369.886l.037-.026-.037-.047v-.245h-.8l-1.761,1.307-26.9,19.961H267.867v1.1h33.759l-33.759,25.049.436.586,34.553-25.634h27.152v20.949h2.562V391.934H472.1v-1.1Zm-28.234,0,25.672-19.046v19.046Z" transform="translate(-225.867 -352.568)" fill="#ffcd05"></path></g></svg> 